<svg width="213" height="224" viewBox="0 0 213 224" fill="none" xmlns="http://www.w3.org/2000/svg">
<g clip-path="url(#clip0_9_1103)">
<path d="M147.21 180.45C147.21 187.25 147.21 193.55 147.21 200.34C148.98 200.34 150.68 200.34 152.37 200.34C162.61 200.35 167.44 205.12 167.65 215.4C167.66 215.88 167.7 216.36 167.74 217.06C171.94 217.06 176 217.05 180.05 217.06C182.68 217.07 184.1 218.14 184.11 220.06C184.12 222 182.74 223.07 180.09 223.07C131 223.08 81.91 223.08 32.83 223.07C30.19 223.07 28.83 221.99 28.84 220.03C28.85 218.09 30.22 217.06 32.88 217.05C36.94 217.04 40.99 217.05 45.32 217.05C44.97 211.4 45.94 206.44 50.59 202.86C55.1 199.39 60.43 200.57 65.64 200.17C65.64 193.56 65.64 187.12 65.64 180.33C64.6 180.33 63.63 180.33 62.65 180.33C47.26 180.33 31.87 180.34 16.47 180.33C6.06 180.32 0 174.3 0 163.94C0 121.69 0 79.4402 0.01 37.1802C0.01 27.0002 6.17 20.8502 16.3 20.8502C64.14 20.8502 111.98 20.8302 159.82 20.9002C162.33 20.9002 163.74 20.1602 165.22 18.0702C168.34 13.6802 171.83 9.54021 175.43 5.52021C176.95 3.83021 178.99 2.50021 181.01 1.40021C187.87 -2.30979 194.83 1.68021 194.99 9.51021C195.05 12.2002 194.28 14.9102 193.82 17.6002C193.66 18.5602 193.3 19.4802 192.91 20.8402C194.59 20.8402 195.97 20.8302 197.34 20.8402C206.37 20.8902 212.54 26.8502 212.89 35.8702C212.91 36.4502 212.9 37.0302 212.9 37.6202C212.9 79.6302 212.89 121.63 212.91 163.64C212.91 167.93 212.1 171.9 209.24 175.25C205.9 179.15 201.51 180.47 196.53 180.46C181.14 180.43 165.75 180.45 150.35 180.45C149.4 180.45 148.42 180.45 147.21 180.45ZM207.01 138.52C207.01 137.61 207.01 136.64 207.01 135.66C207.01 102.98 207.01 70.2902 207.01 37.6102C207.01 36.7802 207.04 35.9402 206.96 35.1202C206.46 30.2102 202.91 26.9502 197.98 26.8702C196.15 26.8402 194.31 26.9802 192.49 26.8302C190.85 26.7002 189.98 27.3002 189.21 28.7602C183.06 40.3002 175.32 50.6402 165.57 59.4102C164.45 60.4102 164.33 61.2302 164.82 62.6002C166.16 66.3502 165.62 69.9602 163.55 73.3602C157.41 83.4002 146.86 87.4902 135.54 84.2202C131.36 83.0102 129.72 78.4402 132.53 75.1602C135.06 72.2102 136 68.8802 136.26 65.1102C136.55 60.9702 137.56 56.8302 141.11 54.3002C143.51 52.5902 146.54 51.7702 149.16 50.6102C152.42 42.9002 155.79 34.9302 159.22 26.8002C158.4 26.8002 157.58 26.8002 156.76 26.8002C110.01 26.8002 63.26 26.8002 16.5 26.8002C9.33 26.8002 6 30.1602 6 37.3802C5.99 70.2302 6 103.08 6 135.93C6 136.82 6 137.71 6 138.63C6.71 138.75 7.1 138.88 7.5 138.88C25.8 138.89 44.1 138.9 62.4 138.87C63.01 138.87 63.89 138.71 64.18 138.3C67.13 134.03 69.98 129.69 73.17 124.9C71.7 124.9 70.81 124.9 69.92 124.9C55.11 124.9 40.3 124.91 25.5 124.89C20.08 124.88 17.36 122.15 17.36 116.77C17.35 99.3002 17.35 81.8402 17.36 64.3702C17.36 58.9102 20 56.2502 25.44 56.2502C44.07 56.2402 62.71 56.2302 81.34 56.2502C86.86 56.2502 89.36 58.8002 89.37 64.3702C89.38 75.3502 89.37 86.3302 89.37 97.3002C89.37 98.0802 89.37 98.8602 89.37 99.6402C90.84 98.4302 91.76 97.0902 92.66 95.7402C97.87 87.9202 103.05 80.0902 108.3 72.2902C112.03 66.7502 117.41 66.8102 121.12 72.3702C127.34 81.7102 133.55 91.0602 139.78 100.4C141.75 103.35 143.76 106.27 145.88 109.4C150.01 103.6 153.94 98.0302 157.93 92.5102C161.7 87.3002 166.83 87.4602 170.42 92.8502C179.97 107.16 189.52 121.48 199.08 135.79C201.47 139.35 202.26 139.62 207.01 138.52ZM206.81 144.85C205.68 144.85 204.63 144.85 203.58 144.85C162.23 144.85 120.88 144.85 79.53 144.85C55.9 144.85 32.27 144.88 8.65 144.81C6.58 144.8 5.94 145.38 5.99 147.47C6.12 153.21 6.04 158.95 6.03 164.69C6.02 167.84 6.75 170.88 9.56 172.51C11.53 173.66 14.04 174.42 16.32 174.43C76.39 174.53 136.46 174.51 196.52 174.51C197.1 174.51 197.69 174.52 198.27 174.49C202.84 174.22 206.48 171.38 206.71 166.85C207.09 159.64 206.81 152.41 206.81 144.85ZM53.42 119.01C62.32 119.01 71.22 119.01 80.11 119.01C83.47 119.01 83.49 118.99 83.49 115.72C83.49 98.9302 83.45 82.1302 83.54 65.3402C83.55 62.8502 82.84 62.0402 80.3 62.0602C62.34 62.1602 44.38 62.1502 26.42 62.0702C24.07 62.0602 23.27 62.6902 23.29 65.1402C23.39 81.9302 23.34 98.7302 23.34 115.52C23.34 119 23.34 119.01 26.73 119.01C35.63 119.01 44.53 119.01 53.42 119.01ZM121.03 99.7302C119.43 101.36 118.31 102.56 117.12 103.7C115.28 105.45 113.8 105.43 111.96 103.62C110.79 102.48 109.69 101.26 108.73 100.26C106.48 101.97 104.61 104.48 102.57 104.62C100.63 104.76 98.5 102.43 96.35 101.12C92.94 106.24 88.2 110.93 89.23 118.4C89.71 121.92 86.52 124.48 82.69 124.9C81.75 125 80.42 125.08 79.99 125.68C77.02 129.84 74.24 134.15 71.2 138.69C100.27 138.69 128.92 138.69 158.04 138.69C149.43 125.77 141.08 113.24 132.38 100.18C131.25 101.54 130.47 102.64 129.53 103.58C127.61 105.5 126.15 105.48 124.22 103.51C123.14 102.4 122.2 101.13 121.03 99.7302ZM71.93 200.13C95.08 200.13 118.05 200.13 140.99 200.13C140.99 193.49 140.99 187.05 140.99 180.61C117.88 180.61 94.97 180.61 71.93 180.61C71.93 187.16 71.93 193.53 71.93 200.13ZM161.44 216.96C162.36 209.32 159.72 206.26 152.42 206.26C121.66 206.26 90.9 206.26 60.14 206.26C53.25 206.26 50.25 210 51.64 216.96C88.17 216.96 124.73 216.96 161.44 216.96ZM164.28 94.4102C163.65 94.9402 163.28 95.1402 163.06 95.4502C158.76 101.47 154.42 107.47 150.24 113.58C149.83 114.18 150.06 115.64 150.52 116.35C155.05 123.32 159.73 130.2 164.28 137.16C165.11 138.43 166.01 138.91 167.52 138.9C175.01 138.83 182.5 138.87 189.98 138.87C191.1 138.87 192.22 138.87 193.93 138.87C183.87 123.76 174.12 109.16 164.28 94.4102ZM171.65 44.3702C178.7 35.1302 185.38 25.9802 188.43 14.7602C188.84 13.2602 189.05 11.6502 189.01 10.0902C188.93 6.25021 186.76 4.99021 183.44 6.88021C181.95 7.73021 180.48 8.79021 179.33 10.0602C176.65 13.0002 173.87 15.9202 171.68 19.2102C167.79 25.0502 164.31 31.1602 160.55 37.3202C164.49 39.8102 167.9 41.9802 171.65 44.3702ZM137.4 78.5102C145.6 80.3302 151.93 78.4102 157 72.2002C162.05 66.0102 158.72 61.8302 154.56 59.0802C148.46 55.0402 142.96 57.5602 142.25 64.8002C141.78 69.6602 141.02 74.3302 137.4 78.5102ZM129.36 95.4202C124.45 88.1102 119.73 81.0602 114.67 73.5202C109.54 81.2202 104.81 88.3002 100.04 95.4502C100.91 96.2602 101.61 96.9002 102.54 97.7602C103.74 96.4302 104.7 95.2802 105.75 94.2302C107.79 92.2202 109.24 92.2202 111.27 94.3102C112.35 95.4202 113.27 96.6902 114.55 98.2302C116.06 96.5302 116.98 95.3602 118.04 94.3102C120.21 92.1702 121.56 92.2102 123.75 94.4002C124.8 95.4602 125.79 96.5702 127.06 97.9302C127.88 97.0402 128.54 96.3202 129.36 95.4202ZM158.5 43.0502C157.98 44.3502 157.56 45.3202 157.2 46.3202C155.04 52.3602 155.04 52.3702 160.19 55.5002C160.32 55.5802 160.5 55.5702 160.79 55.6202C163.01 53.4702 165.29 51.2702 167.74 48.8902C164.55 46.8702 161.7 45.0702 158.5 43.0502Z" fill="#F2668F"/>
<path opacity="0.2" d="M206.81 144.85C206.81 152.41 207.09 159.63 206.71 166.82C206.47 171.35 202.83 174.19 198.27 174.46C197.69 174.49 197.11 174.48 196.52 174.48C136.45 174.48 76.38 174.5 16.32 174.4C14.05 174.4 11.54 173.63 9.55999 172.48C6.75999 170.85 6.02999 167.82 6.02999 164.66C6.03999 158.92 6.11999 153.18 5.98999 147.44C5.93999 145.36 6.57999 144.78 8.64999 144.78C32.28 144.85 55.91 144.82 79.53 144.82C120.88 144.82 162.23 144.82 203.58 144.82C204.63 144.85 205.69 144.85 206.81 144.85ZM106.61 162.64C108.35 162.64 110.09 162.69 111.83 162.62C113.64 162.55 114.88 161.59 114.92 159.73C114.97 157.88 113.82 156.76 111.98 156.71C108.34 156.62 104.69 156.63 101.04 156.71C99.21 156.75 98.05 157.82 98.08 159.7C98.11 161.59 99.32 162.54 101.13 162.62C102.96 162.7 104.79 162.63 106.61 162.64Z" fill="#C264E3"/>
<path opacity="0.2" d="M137.4 78.51C141.02 74.33 141.78 69.67 142.26 64.8C142.97 57.57 148.46 55.05 154.57 59.08C158.72 61.82 162.06 66 157.01 72.2C151.93 78.41 145.6 80.32 137.4 78.51Z" fill="#C264E3"/>
<path opacity="0.2" d="M129.36 95.42C128.54 96.32 127.88 97.05 127.06 97.94C125.79 96.59 124.8 95.47 123.75 94.41C121.56 92.22 120.21 92.18 118.04 94.32C116.98 95.36 116.06 96.53 114.55 98.24C113.27 96.7 112.35 95.43 111.27 94.32C109.24 92.23 107.79 92.22 105.75 94.24C104.69 95.29 103.74 96.44 102.54 97.77C101.61 96.91 100.92 96.27 100.04 95.46C104.81 88.31 109.53 81.23 114.67 73.53C119.73 81.06 124.45 88.1 129.36 95.42Z" fill="#C264E3"/>
<path d="M106.61 162.63C104.79 162.63 102.96 162.69 101.14 162.61C99.3299 162.53 98.1099 161.58 98.0899 159.69C98.0599 157.81 99.2199 156.75 101.05 156.7C104.69 156.62 108.34 156.62 111.99 156.7C113.83 156.74 114.97 157.86 114.93 159.72C114.88 161.58 113.65 162.54 111.84 162.61C110.09 162.69 108.35 162.64 106.61 162.63Z" fill="#F2668F"/>
<path d="M31.6 77.34C32.05 72.5 32.7 71.32 34.79 71.36C36.83 71.4 37.43 72.5 37.98 77.3C39.93 77.66 42.37 77.68 42.32 80.58C42.27 83.3 40 83.4 37.78 83.68C37.78 87.15 37.78 90.54 37.78 93.93C37.78 98.01 37.8 102.08 37.77 106.16C37.76 108.17 36.86 109.67 34.73 109.67C32.59 109.67 31.77 108.2 31.78 106.15C31.8 98.75 31.79 91.35 31.79 83.82C29.73 83.3 27.03 83.45 27.14 80.41C27.22 77.71 29.48 77.57 31.6 77.34Z" fill="#F2668F"/>
<path d="M57.3601 95.37C57.3601 98.97 57.3801 102.37 57.3501 105.76C57.3301 108.41 56.2301 109.88 54.2901 109.71C51.9301 109.51 51.3801 107.84 51.3801 105.81C51.3801 102.41 51.3801 99.01 51.3801 95.45C49.2201 95.19 46.7801 95.21 46.8301 92.31C46.8701 89.62 48.9601 89.28 51.3801 89.23C51.3801 86.08 51.3801 83.02 51.3801 79.96C51.3801 78.3 51.3601 76.63 51.3901 74.97C51.4201 72.99 52.1801 71.43 54.3701 71.42C56.5401 71.41 57.3601 72.91 57.3601 74.93C57.3601 78.76 57.3601 82.58 57.3601 86.41C57.3601 87.3 57.3601 88.2 57.3601 89.14C59.7801 89.38 62.0501 89.58 61.9101 92.51C61.7801 95.13 59.7301 95.3 57.3601 95.37Z" fill="#F2668F"/>
<path d="M69.2001 87.44C66.8601 87.32 64.5601 87.09 64.5701 84.29C64.5701 81.65 66.6301 81.2 69.2101 81.22C69.2101 79.13 69.2401 77.1 69.2001 75.07C69.1601 73.08 69.7801 71.59 71.9901 71.38C73.8401 71.2 75.0301 72.63 75.1001 75.04C75.1501 77.02 75.1101 79 75.1101 81.14C77.4401 81.29 79.7301 81.55 79.6901 84.35C79.6501 87 77.5401 87.34 75.1101 87.42C75.1101 90.2 75.1101 92.92 75.1101 95.63C75.1101 99.2 75.1201 102.77 75.0901 106.34C75.0701 108.24 74.2001 109.67 72.1901 109.69C70.0201 109.71 69.2101 108.26 69.2101 106.21C69.2301 100.89 69.2101 95.58 69.2101 90.26C69.2001 89.35 69.2001 88.45 69.2001 87.44Z" fill="#F2668F"/>
</g>
<defs>
<clipPath id="clip0_9_1103">
<rect width="212.93" height="223.08" fill="white"/>
</clipPath>
</defs>
</svg>
