<svg width="241" height="30" viewBox="0 0 241 30" fill="none" xmlns="http://www.w3.org/2000/svg">
<path d="M16.956 28.928V14.76L11.104 25.512H9.25599L3.37599 14.76V28.928H0.23999V9.04804H3.59999L10.18 21.2L16.76 9.04804H20.12V28.928H16.956Z" fill="black"/>
<path d="M34.4033 28.928V9.04804H37.5393V28.928H34.4033Z" fill="black"/>
<path d="M50.5722 18.848C50.5722 17.6347 50.7868 16.4494 51.2162 15.292C51.6455 14.116 52.2708 13.052 53.0922 12.1C53.9322 11.1294 54.9495 10.364 56.1442 9.80404C57.3388 9.22537 58.6922 8.93604 60.2042 8.93604C61.9962 8.93604 63.5455 9.3467 64.8522 10.168C66.1588 10.9707 67.1295 12.0067 67.7642 13.276L65.3002 14.928C64.9268 14.1254 64.4508 13.4907 63.8722 13.024C63.3122 12.5574 62.6962 12.2307 62.0242 12.044C61.3708 11.8574 60.7268 11.764 60.0922 11.764C59.0468 11.764 58.1322 11.9787 57.3482 12.408C56.5642 12.8187 55.9015 13.3694 55.3602 14.06C54.8375 14.7507 54.4362 15.5254 54.1562 16.384C53.8948 17.2427 53.7642 18.1014 53.7642 18.96C53.7642 19.912 53.9228 20.836 54.2402 21.732C54.5575 22.6094 54.9962 23.3934 55.5562 24.084C56.1348 24.756 56.8162 25.288 57.6002 25.68C58.3842 26.072 59.2428 26.268 60.1762 26.268C60.8108 26.268 61.4735 26.156 62.1642 25.932C62.8548 25.708 63.4895 25.3627 64.0682 24.896C64.6655 24.4107 65.1322 23.776 65.4682 22.992L68.0722 24.476C67.6615 25.4654 67.0175 26.3054 66.1402 26.996C65.2815 27.6867 64.3108 28.2094 63.2282 28.564C62.1642 28.9187 61.1095 29.096 60.0642 29.096C58.6642 29.096 57.3855 28.8067 56.2282 28.228C55.0708 27.6307 54.0722 26.8467 53.2322 25.876C52.3922 24.8867 51.7388 23.7854 51.2722 22.572C50.8055 21.34 50.5722 20.0987 50.5722 18.848Z" fill="black"/>
<path d="M86.2394 9.04804H89.2074L96.9354 28.928H93.6314L91.5314 23.524H83.8594L81.7874 28.928H78.4554L86.2394 9.04804ZM90.9154 21.2L87.7234 12.492L84.4194 21.2H90.9154Z" fill="black"/>
<path d="M108.662 28.928V25.344H111.21V28.928H108.662Z" fill="black"/>
<path d="M130.695 9.04804H133.663L141.391 28.928H138.087L135.987 23.524H128.315L126.243 28.928H122.911L130.695 9.04804ZM135.371 21.2L132.179 12.492L128.875 21.2H135.371Z" fill="black"/>
<path d="M153.649 28.928V9.04804H156.785V28.928H153.649Z" fill="black"/>
<path d="M171.078 28.928V9.04804H174.214V26.156H184.882V28.928H171.078Z" fill="black"/>
<path d="M210.866 26.156V28.928H197.23V9.04804H210.614V11.82H200.366V17.476H209.242V20.08H200.366V26.156H210.866Z" fill="black"/>
<path d="M227.037 14.872V28.928H223.901V9.04804H226.477L237.733 23.412V9.07604H240.897V28.928H238.153L227.037 14.872Z" fill="black"/>
<g opacity="0.4">
<path d="M37.948 20.748C38.228 20.748 38.536 20.72 38.844 20.692C40.692 20.496 42.456 20.02 44.164 19.264C44.36 19.152 44.472 18.984 44.472 18.76C44.416 18.396 44.22 18.228 43.856 18.228L43.66 18.256C41.812 19.124 39.88 19.572 37.892 19.628C35.988 19.572 34.448 18.788 33.3 17.304C32.208 15.708 30.92 14.924 29.464 14.924C28.4 15.064 27.364 15.624 26.384 16.604C26.048 16.94 25.768 17.192 25.572 17.36C25.376 16.688 25.012 16.156 24.48 15.764C23.92 15.288 23.276 15.064 22.576 15.064C21.82 15.064 21.064 15.316 20.364 15.792C19.832 16.212 19.188 16.744 18.488 17.388C17.872 17.976 17.34 18.368 16.92 18.592L16.752 18.648L16.584 18.62C16.5 18.48 16.472 18.144 16.472 17.668C16.5 17.192 16.556 16.744 16.64 16.352C16.724 15.82 16.78 15.26 16.78 14.728C16.78 13.72 16.472 13.216 15.828 13.188C15.184 13.188 14.26 13.608 13.056 14.448C12.888 14.588 12.748 14.672 12.608 14.756C10.564 16.128 8.40796 17.304 6.13996 18.228C5.91596 18.368 5.80396 18.536 5.80396 18.788C5.80396 19.152 5.97196 19.32 6.30796 19.32L6.47596 19.292C8.77196 18.34 10.984 17.164 13.14 15.764L15.464 14.364C15.604 14.364 15.688 14.448 15.688 14.588C15.688 14.952 15.632 15.512 15.52 16.268C15.408 16.744 15.352 17.22 15.352 17.696C15.352 19.152 15.716 19.88 16.444 19.88C17.256 19.88 18.432 19.096 19.972 17.556C20.98 16.632 21.876 16.184 22.688 16.184C23.64 16.268 24.228 16.772 24.452 17.696C24.536 18.368 24.844 18.704 25.376 18.704C26.02 18.396 26.608 17.976 27.14 17.416C28.12 16.492 28.932 16.016 29.632 16.016C30.556 16.016 31.48 16.66 32.432 17.948C33.86 19.824 35.708 20.748 37.948 20.748Z" fill="black"/>
<path d="M49.9055 21.168C52.8735 21.112 55.7295 20.524 58.4735 19.376C58.6975 19.236 58.8095 19.068 58.8095 18.816C58.8095 18.452 58.6415 18.256 58.3055 18.256L58.1375 18.284C55.8975 19.208 53.5735 19.796 51.1935 19.992C50.8295 20.02 50.4375 20.048 49.9895 20.048C49.3175 20.048 47.9735 20.104 46.8255 19.404C46.2655 19.04 45.9855 18.48 45.9855 17.724V17.584C45.9855 17.22 45.8175 17.052 45.4535 17.052C45.2575 17.052 45.0895 17.136 44.9495 17.304C44.5575 17.78 44.0535 18.116 43.4375 18.312C43.1855 18.424 43.0735 18.62 43.0735 18.872C43.0735 19.236 43.2415 19.432 43.5775 19.432L43.7455 19.404C44.2775 19.208 44.6975 18.984 45.0055 18.76C45.2295 19.6 45.8455 20.244 46.8815 20.664C47.8055 21 48.7295 21.168 49.6535 21.168H49.9055ZM46.7135 14.392C47.0215 14.392 47.2735 14.252 47.4135 13.972C47.4695 13.832 47.4975 13.692 47.4975 13.552C47.4975 13.16 47.3295 12.88 46.9935 12.74C46.8255 12.684 46.6575 12.656 46.4615 12.656C46.1535 12.656 45.7055 12.936 45.7055 13.412C45.7055 13.86 45.9015 14.14 46.2655 14.252C46.4055 14.336 46.5735 14.392 46.7135 14.392Z" fill="black"/>
<path d="M65.9506 22.12C69.7586 22.12 73.3986 21.168 76.8986 19.264C77.0666 19.152 77.1506 19.012 77.1506 18.844C77.1506 18.424 76.9826 18.228 76.6186 18.228C76.5066 18.228 76.3946 18.256 76.3106 18.312C73.0346 20.076 69.4506 20.972 65.5586 20.972C63.9066 20.972 62.3386 20.748 60.8546 20.3C60.0426 20.076 59.3426 19.46 59.3426 18.9C59.3426 18.424 59.6506 17.92 60.2386 17.388C60.6026 17.052 60.9946 16.772 61.4426 16.52C61.6386 16.436 61.8066 16.38 61.9466 16.38C62.0026 16.38 62.0586 16.436 62.1426 16.576C62.1706 16.632 62.1706 16.688 62.1706 16.772C62.1706 16.912 62.0026 17.052 61.6946 17.248C61.4706 17.444 61.3586 17.612 61.3586 17.78C61.3586 18.2 61.5266 18.396 61.8906 18.396C61.9746 18.396 62.0866 18.368 62.1986 18.284C63.0106 17.808 63.4026 17.22 63.4026 16.576C63.4026 16.436 63.3746 16.296 63.3466 16.156C63.0946 15.568 62.6466 15.26 61.9746 15.26C61.3586 15.26 60.6866 15.568 59.9306 16.184C58.7826 17.108 58.1946 18.004 58.1946 18.872C58.1946 19.124 58.2226 19.376 58.3066 19.656C59.1186 21.308 61.6666 22.12 65.9506 22.12Z" fill="black"/>
<path d="M77.1344 20.356C76.8264 20.356 76.6304 20.272 76.4904 20.104C76.4064 20.02 76.3784 19.908 76.3784 19.824C76.3784 19.544 76.7984 19.236 77.6664 18.872C78.5344 18.508 79.2344 18.34 79.7104 18.34C80.2424 18.34 80.6624 18.452 80.9704 18.648C80.1584 19.236 79.2624 19.712 78.3384 20.076C77.8624 20.272 77.4704 20.356 77.1344 20.356ZM76.7704 21.56C77.1064 21.56 77.5544 21.476 78.1424 21.308C79.5144 20.888 80.6904 20.272 81.6984 19.516C81.8104 19.964 82.1464 20.384 82.7064 20.804C83.4064 21.196 84.1064 21.392 84.8624 21.392C85.1984 21.392 85.5344 21.364 85.8704 21.28C88.4184 20.86 90.8824 20.244 93.3184 19.376C93.5704 19.292 93.7104 19.096 93.7104 18.844C93.7104 18.592 93.4864 18.256 93.1784 18.256C93.0944 18.256 92.8704 18.312 92.5064 18.452C89.3424 19.6 86.7944 20.188 84.8064 20.188C83.4064 20.188 82.7064 19.684 82.7064 18.648C82.7064 18.172 82.5104 17.948 82.1464 17.948C82.0064 17.948 81.8944 17.92 81.8104 17.836C81.2224 17.444 80.6064 17.248 79.9624 17.248C78.7304 17.248 77.4424 17.64 76.1264 18.424C75.5384 18.788 75.2304 19.32 75.2024 20.076C75.2864 21.056 75.7904 21.56 76.7704 21.56Z" fill="black"/>
</g>
<g opacity="0.4">
<path d="M147.736 20.356C147.428 20.356 147.232 20.272 147.092 20.104C147.008 20.02 146.98 19.908 146.98 19.824C146.98 19.544 147.4 19.236 148.268 18.872C149.136 18.508 149.836 18.34 150.312 18.34C150.844 18.34 151.264 18.452 151.572 18.648C150.76 19.236 149.864 19.712 148.94 20.076C148.464 20.272 148.072 20.356 147.736 20.356ZM147.372 21.56C147.708 21.56 148.156 21.476 148.744 21.308C150.116 20.888 151.292 20.272 152.3 19.516C152.412 19.964 152.748 20.384 153.308 20.804C154.008 21.196 154.708 21.392 155.464 21.392C155.8 21.392 156.136 21.364 156.472 21.28C159.02 20.86 161.484 20.244 163.92 19.376C164.172 19.292 164.312 19.096 164.312 18.844C164.312 18.592 164.088 18.256 163.78 18.256C163.696 18.256 163.472 18.312 163.108 18.452C159.944 19.6 157.396 20.188 155.408 20.188C154.008 20.188 153.308 19.684 153.308 18.648C153.308 18.172 153.112 17.948 152.748 17.948C152.608 17.948 152.496 17.92 152.412 17.836C151.824 17.444 151.208 17.248 150.564 17.248C149.332 17.248 148.044 17.64 146.728 18.424C146.14 18.788 145.832 19.32 145.804 20.076C145.888 21.056 146.392 21.56 147.372 21.56Z" fill="black"/>
<path d="M170.081 21.168C173.049 21.112 175.905 20.524 178.649 19.376C178.873 19.236 178.985 19.068 178.985 18.816C178.985 18.452 178.817 18.256 178.481 18.256L178.313 18.284C176.073 19.208 173.749 19.796 171.369 19.992C171.005 20.02 170.613 20.048 170.165 20.048C169.493 20.048 168.149 20.104 167.001 19.404C166.441 19.04 166.161 18.48 166.161 17.724V17.584C166.161 17.22 165.993 17.052 165.629 17.052C165.433 17.052 165.265 17.136 165.125 17.304C164.733 17.78 164.229 18.116 163.613 18.312C163.361 18.424 163.249 18.62 163.249 18.872C163.249 19.236 163.417 19.432 163.753 19.432L163.921 19.404C164.453 19.208 164.873 18.984 165.181 18.76C165.405 19.6 166.021 20.244 167.057 20.664C167.981 21 168.905 21.168 169.829 21.168H170.081ZM166.889 14.392C167.197 14.392 167.449 14.252 167.589 13.972C167.645 13.832 167.673 13.692 167.673 13.552C167.673 13.16 167.505 12.88 167.169 12.74C167.001 12.684 166.833 12.656 166.637 12.656C166.329 12.656 165.881 12.936 165.881 13.412C165.881 13.86 166.077 14.14 166.441 14.252C166.581 14.336 166.749 14.392 166.889 14.392Z" fill="black"/>
<path d="M186.336 22.064C186.868 22.064 187.344 22.036 187.792 21.952C190.536 21.476 193.168 20.58 195.66 19.264C195.856 19.18 195.94 19.04 195.94 18.844C195.94 18.424 195.604 18.228 195.38 18.228C195.296 18.228 195.184 18.256 195.1 18.312C193.224 19.292 191.236 20.02 189.164 20.524C188.044 20.832 187.008 20.972 186.084 20.972C185.496 20.972 184.964 20.888 184.488 20.72C183.956 20.524 183.704 20.104 183.704 19.46C183.704 18.816 184.012 17.92 184.6 16.8L184.796 16.38C188.128 14.336 190.956 11.676 193.336 8.4C194.624 6.664 195.66 4.788 196.416 2.772C196.612 2.24 196.696 1.764 196.696 1.344C196.696 0.448001 196.332 0 195.632 0C195.1 0 194.456 0.336002 193.672 1.008C192.132 2.38 190.788 3.976 189.64 5.768C187.316 9.072 185.412 12.348 183.928 15.596C182.136 16.688 180.232 17.584 178.188 18.256C177.936 18.368 177.796 18.536 177.796 18.788C177.796 19.124 178.02 19.376 178.328 19.376L178.496 19.348C180.288 18.732 181.828 18.06 183.088 17.36C182.752 18.032 182.584 18.732 182.584 19.432C182.584 20.3 182.864 20.916 183.396 21.308C183.984 21.728 184.544 21.98 185.104 22.008C185.664 22.036 186.084 22.064 186.336 22.064ZM185.72 14.42C186.784 12.32 187.988 10.22 189.36 8.176C191.796 4.424 193.756 2.128 195.212 1.316C195.296 1.288 195.38 1.26 195.464 1.26C195.548 1.26 195.576 1.288 195.576 1.372C195.576 1.512 195.548 1.68 195.492 1.876C195.352 2.52 195.128 3.108 194.848 3.64C192.608 8.232 189.556 11.816 185.72 14.42Z" fill="black"/>
<path d="M202.403 21.924C206.099 21.924 209.543 21.028 212.707 19.264C212.903 19.18 213.015 19.04 213.015 18.844C213.015 18.396 212.679 18.228 212.483 18.228C212.371 18.228 212.259 18.256 212.175 18.312C209.095 19.964 205.847 20.804 202.403 20.804C200.975 20.804 199.547 20.636 198.119 20.328C197.923 20.328 197.475 20.216 196.803 19.992C196.411 19.852 196.075 19.656 195.767 19.348L195.627 19.208C196.523 19.096 197.419 18.704 198.343 18.032C199.127 17.472 199.519 16.884 199.519 16.296L199.491 15.988C199.295 15.344 198.847 15.008 198.119 15.008C197.531 15.008 196.887 15.26 196.187 15.792C194.955 16.744 194.339 17.696 194.339 18.62C194.339 18.816 194.367 19.012 194.395 19.236C194.927 20.552 196.439 21.336 198.931 21.644L199.099 21.672C200.191 21.84 201.311 21.924 202.403 21.924ZM195.571 18.116C195.655 17.808 195.935 17.5 196.383 17.136C197.027 16.464 197.643 16.128 198.175 16.128C198.315 16.128 198.399 16.184 198.399 16.324C198.399 16.464 198.343 16.604 198.203 16.716C197.839 17.052 197.279 17.388 196.579 17.752C196.159 17.976 195.823 18.088 195.571 18.116Z" fill="black"/>
<path d="M212.902 22.232C213.266 22.232 213.77 21.98 214.358 21.448L215.506 20.636C216.738 19.74 217.578 19.236 217.998 19.124C218.194 19.068 218.362 19.04 218.446 19.04C218.81 19.04 219.09 19.236 219.286 19.6C219.734 20.272 220.406 20.608 221.33 20.608C221.974 20.608 222.814 20.468 223.85 20.188L224.578 20.02C225.082 19.936 225.586 19.824 226.062 19.712L227.882 19.348C228.134 19.236 228.274 19.068 228.274 18.844C228.274 18.536 228.05 18.228 227.742 18.228C227.602 18.228 226.958 18.368 225.81 18.62C223.43 19.18 222.002 19.46 221.47 19.46C220.882 19.46 220.462 19.264 220.154 18.9C219.734 18.256 219.146 17.948 218.39 17.948C217.522 17.948 216.486 18.452 215.254 19.432L213.994 20.328C213.238 20.804 213.126 21.028 213.042 21.028C213.014 21.028 212.986 21 212.986 20.916V20.664C212.986 19.852 213.238 19.096 213.742 18.424C213.826 18.312 213.854 18.2 213.854 18.116C213.854 18.032 213.826 17.948 213.77 17.864C213.63 17.668 213.462 17.584 213.238 17.584C213.07 17.584 212.93 17.668 212.79 17.836C212.174 18.648 211.866 19.6 211.866 20.692C211.866 21.42 212.062 21.896 212.482 22.148C212.622 22.204 212.762 22.232 212.902 22.232Z" fill="black"/>
</g>
</svg>
