<svg width="195" height="205" viewBox="0 0 195 205" fill="none" xmlns="http://www.w3.org/2000/svg">
<g clip-path="url(#clip0_11_3293)">
<path d="M173.17 0C177.86 6.31 179.49 13.99 182.56 21.02C183.56 23.32 182.7 24.8 180.07 25.85C169.81 29.94 159.53 33.96 149.25 38.02C119.05 49.95 88.85 61.88 58.65 73.82C58.28 73.97 57.93 74.17 57.6 74.34C58.56 78.4 58.56 78.4 62.38 78.4C104.37 78.4 146.37 78.4 188.36 78.4C193.34 78.4 194.14 79.2 194.14 84.16C194.14 119.41 194.14 154.67 194.14 189.92C194.14 199.22 189.11 204.29 179.85 204.29C124.64 204.3 69.42 204.3 14.21 204.29C5.08 204.3 0 199.2 0 190.1C0 146.78 0 103.46 0 60.14C0 50.62 5.29 45.36 14.84 45.36C18.17 45.36 21.51 45.23 24.81 45.54C26.74 45.72 28.79 46.33 30.44 47.32C32.11 48.32 33.36 48.17 35.01 47.51C74.39 31.91 113.79 16.36 153.18 0.79C153.71 0.58 154.2 0.27 154.71 0C160.86 0 167.02 0 173.17 0ZM187.02 111.95C126.79 111.95 66.98 111.95 6.94 111.95C6.94 113.02 6.94 113.92 6.94 114.82C6.94 139.67 6.94 164.53 6.94 189.38C6.94 195.37 8.66 197.08 14.66 197.08C69.61 197.08 124.57 197.08 179.52 197.08C180.35 197.08 181.19 197.12 182.01 197.03C185.02 196.72 187.12 194.46 187.11 191.58C187.08 166.06 187.05 140.54 187.02 115.02C187.02 114.07 187.02 113.09 187.02 111.95ZM6.94 104.65C22.26 104.65 37.23 104.65 52.4 104.65C52.4 97.71 52.4 91 52.4 84.28C52.4 83.28 52.6 82.19 52.27 81.31C51.61 79.57 50.96 77.67 49.75 76.33C44.84 70.91 39.75 65.66 34.68 60.4C25.15 50.51 27.13 52.09 14.87 51.98C9.34 51.93 6.96 54.31 6.95 59.82C6.94 71.7 6.95 83.58 6.95 95.46C6.94 98.44 6.94 101.42 6.94 104.65ZM151.95 85.47C156.58 91.93 160.91 97.99 165.28 104.03C165.57 104.44 166.22 104.82 166.71 104.82C173.51 104.87 180.31 104.85 187.27 104.85C187.27 98.26 187.27 91.92 187.27 85.47C175.57 85.47 164.05 85.47 151.95 85.47ZM114.6 85.37C119.39 91.93 123.75 97.97 128.24 103.92C128.71 104.54 129.95 104.82 130.84 104.83C138.81 104.9 146.77 104.88 154.74 104.86C155.33 104.86 155.93 104.7 156.85 104.58C152.32 98.28 148.03 92.28 143.69 86.32C143.35 85.86 142.63 85.42 142.09 85.41C133.14 85.35 124.2 85.37 114.6 85.37ZM174.81 20.47C172.9 15.82 171.21 11.42 169.3 7.11C168.1 4.41 165.5 3.43 162.65 4.47C158.14 6.12 153.64 7.83 149.2 9.67C148.38 10.01 147.56 11.04 147.3 11.91C146.15 15.89 145.2 19.93 144.18 23.94C143.42 26.95 142.66 29.97 141.77 33.54C153.06 29.09 163.75 24.85 174.81 20.47ZM107.26 47.14C115.76 43.74 123.66 40.52 131.61 37.44C133.12 36.85 133.82 35.99 134.19 34.49C135.74 28.21 137.38 21.96 138.97 15.7C139.12 15.12 139.14 14.5 139.26 13.57C130.67 17.01 122.43 20.28 114.22 23.62C113.69 23.84 113.08 24.45 112.94 24.99C111.05 32.15 109.24 39.36 107.26 47.14ZM78.24 85.36C82.96 91.92 87.23 97.93 91.63 103.85C92.1 104.48 93.31 104.81 94.19 104.82C102.08 104.89 109.96 104.87 117.85 104.85C118.45 104.85 119.06 104.7 120.03 104.57C117.13 100.59 114.46 96.91 111.76 93.25C109.84 90.65 108.37 87.11 105.78 85.79C103.19 84.47 99.46 85.37 96.23 85.36C90.45 85.34 84.67 85.36 78.24 85.36ZM105.25 27.13C103.98 27.6 103.15 27.88 102.34 28.21C95.42 31.02 88.52 33.9 81.56 36.62C79.89 37.27 79.09 38.21 78.73 39.96C78.15 42.8 77.26 45.58 76.54 48.39C75.54 52.3 74.58 56.22 73.5 60.55C74.75 60.11 75.53 59.88 76.27 59.58C82.44 57.12 88.51 54.38 94.8 52.27C98.32 51.09 99.95 49.19 100.67 45.63C101.91 39.58 103.62 33.62 105.25 27.13ZM38.01 53.85C42.77 58.84 47.2 63.54 51.72 68.13C52.13 68.54 53.26 68.61 53.89 68.37C57.38 67.07 60.84 65.66 64.26 64.2C64.86 63.94 65.56 63.31 65.72 62.72C67.64 55.55 69.47 48.36 71.47 40.58C60.08 45.1 49.22 49.4 38.01 53.85ZM59.54 85.38C59.54 92.05 59.54 98.33 59.54 104.67C67.48 104.67 75.27 104.67 83.53 104.67C78.88 98.21 74.5 92.1 70.08 86.03C69.83 85.69 69.25 85.42 68.82 85.42C65.78 85.35 62.73 85.38 59.54 85.38Z" fill="#F2668F"/>
<path d="M6.93999 104.65C6.93999 101.42 6.93999 98.44 6.93999 95.46C6.93999 83.58 6.92999 71.7 6.93999 59.82C6.94999 54.32 9.32999 51.93 14.86 51.98C27.11 52.09 25.14 50.51 34.67 60.4C39.74 65.67 44.83 70.92 49.74 76.33C50.95 77.66 51.6 79.57 52.26 81.31C52.59 82.19 52.39 83.28 52.39 84.28C52.4 91 52.39 97.71 52.39 104.65C37.23 104.65 22.26 104.65 6.93999 104.65ZM21.71 66.94C19.92 66.91 18.18 68.6 18.17 70.4C18.16 72.23 19.85 73.95 21.68 73.82C23.67 73.68 24.87 72.55 25.02 70.52C25.17 68.62 23.59 66.97 21.71 66.94ZM18.17 90.64C18.17 92.43 19.92 94.15 21.69 94.11C23.51 94.07 25.15 92.35 25.02 90.51C24.87 88.5 23.71 87.35 21.69 87.23C19.84 87.13 18.17 88.81 18.17 90.64Z" fill="#C264E3" fill-opacity="0.2"/>
<path d="M151.95 85.47C164.05 85.47 175.57 85.47 187.27 85.47C187.27 91.92 187.27 98.27 187.27 104.85C180.3 104.85 173.51 104.87 166.71 104.82C166.22 104.82 165.58 104.43 165.28 104.03C160.91 97.99 156.58 91.93 151.95 85.47Z" fill="#C264E3" fill-opacity="0.2"/>
<path d="M114.6 85.37C124.2 85.37 133.14 85.35 142.09 85.41C142.63 85.41 143.36 85.86 143.69 86.32C148.03 92.28 152.32 98.28 156.85 104.58C155.93 104.71 155.33 104.86 154.74 104.86C146.77 104.88 138.81 104.9 130.84 104.83C129.95 104.82 128.71 104.54 128.24 103.92C123.75 97.97 119.39 91.93 114.6 85.37Z" fill="#C264E3" fill-opacity="0.2"/>
<path d="M174.81 20.47C163.75 24.85 153.06 29.08 141.77 33.55C142.67 29.98 143.42 26.96 144.18 23.95C145.2 19.93 146.15 15.9 147.3 11.92C147.55 11.05 148.38 10.02 149.2 9.67998C153.64 7.82998 158.14 6.12998 162.65 4.47998C165.5 3.43998 168.1 4.40998 169.3 7.11998C171.21 11.42 172.91 15.82 174.81 20.47Z" fill="#C264E3" fill-opacity="0.2"/>
<path d="M107.26 47.14C109.24 39.36 111.05 32.16 112.94 24.97C113.08 24.43 113.68 23.82 114.22 23.6C122.43 20.26 130.67 16.98 139.26 13.55C139.14 14.48 139.12 15.1 138.97 15.68C137.38 21.95 135.73 28.2 134.19 34.47C133.82 35.98 133.13 36.84 131.61 37.42C123.66 40.51 115.76 43.73 107.26 47.14Z" fill="#C264E3" fill-opacity="0.2"/>
<path d="M78.24 85.36C84.67 85.36 90.45 85.34 96.24 85.37C99.47 85.38 103.2 84.49 105.79 85.8C108.38 87.12 109.85 90.66 111.77 93.26C114.47 96.92 117.13 100.6 120.04 104.58C119.06 104.71 118.46 104.85 117.86 104.86C109.97 104.88 102.09 104.9 94.2 104.83C93.33 104.82 92.11 104.48 91.64 103.86C87.23 97.93 82.96 91.92 78.24 85.36Z" fill="#C264E3" fill-opacity="0.2"/>
<path d="M105.25 27.13C103.62 33.63 101.91 39.59 100.68 45.64C99.96 49.2 98.32 51.1 94.81 52.28C88.52 54.39 82.45 57.12 76.28 59.59C75.53 59.89 74.76 60.12 73.51 60.56C74.59 56.23 75.55 52.31 76.55 48.4C77.27 45.59 78.16 42.81 78.74 39.97C79.1 38.22 79.9 37.29 81.57 36.63C88.53 33.9 95.42 31.03 102.35 28.22C103.15 27.88 103.98 27.6 105.25 27.13Z" fill="#C264E3" fill-opacity="0.2"/>
<path d="M38.01 53.85C49.22 49.41 60.08 45.1 71.48 40.58C69.48 48.36 67.65 55.55 65.73 62.72C65.57 63.31 64.87 63.95 64.27 64.2C60.84 65.67 57.39 67.07 53.9 68.37C53.27 68.6 52.14 68.54 51.73 68.13C47.2 63.54 42.77 58.84 38.01 53.85Z" fill="#C264E3" fill-opacity="0.2"/>
<path d="M59.54 85.38C62.73 85.38 65.78 85.36 68.83 85.41C69.26 85.42 69.84 85.68 70.09 86.02C74.51 92.1 78.89 98.2 83.54 104.66C75.27 104.66 67.48 104.66 59.55 104.66C59.54 98.32 59.54 92.05 59.54 85.38Z" fill="#C264E3" fill-opacity="0.2"/>
<path d="M76.07 154.78C76.07 146.8 76.08 138.82 76.06 130.84C76.05 129.02 76.23 127.3 78.03 126.33C79.89 125.32 81.39 126.31 82.83 127.35C93.83 135.25 104.84 143.14 115.82 151.06C119.18 153.49 119.18 155.72 115.84 158.12C104.85 166.04 93.84 173.92 82.85 181.84C81.29 182.96 79.74 183.78 77.8 182.77C75.86 181.76 76.05 179.97 76.05 178.21C76.08 170.4 76.07 162.59 76.07 154.78ZM108.77 154.36C100.02 148.1 91.65 142.11 83 135.92C83 148.46 83 160.38 83 172.82C91.68 166.6 100.02 160.63 108.77 154.36Z" fill="#F2668F"/>
<path d="M154.99 176.04C160.71 176.04 166.44 176.02 172.16 176.05C174.82 176.06 176.48 177.43 176.44 179.49C176.4 181.46 174.82 182.82 172.29 182.82C160.59 182.85 148.89 182.85 137.2 182.82C134.67 182.81 133.16 181.41 133.2 179.37C133.24 177.34 134.77 176.07 137.32 176.05C143.21 176.02 149.1 176.04 154.99 176.04Z" fill="#F2668F"/>
<path d="M144.89 165.83C142.32 165.83 139.75 165.88 137.18 165.81C134.66 165.74 133.17 164.38 133.21 162.33C133.25 160.3 134.77 159 137.31 158.98C142.45 158.94 147.59 158.94 152.73 158.98C155.34 159 156.75 160.22 156.79 162.33C156.83 164.48 155.46 165.74 152.86 165.81C150.2 165.88 147.55 165.83 144.89 165.83Z" fill="#F2668F"/>
<path d="M21.71 66.94C23.59 66.97 25.16 68.62 25.02 70.52C24.87 72.54 23.67 73.67 21.68 73.82C19.85 73.95 18.16 72.23 18.17 70.4C18.18 68.6 19.92 66.91 21.71 66.94Z" fill="#F2668F"/>
<path d="M18.1699 90.64C18.1699 88.81 19.8399 87.13 21.6799 87.24C23.6899 87.36 24.8599 88.51 25.0099 90.52C25.1499 92.36 23.4999 94.08 21.6799 94.12C19.9199 94.15 18.1699 92.43 18.1699 90.64Z" fill="#F2668F"/>
<path d="M108.77 154.36C100.02 160.63 91.68 166.6 83 172.82C83 160.38 83 148.45 83 135.92C91.65 142.1 100.02 148.1 108.77 154.36Z" fill="#C264E3" fill-opacity="0.2"/>
</g>
<defs>
<clipPath id="clip0_11_3293">
<rect width="194.15" height="204.3" fill="white"/>
</clipPath>
</defs>
</svg>
