<svg width="229" height="231" viewBox="0 0 229 231" fill="none" xmlns="http://www.w3.org/2000/svg">
<g clip-path="url(#clip0_9_1120)">
<path d="M200.75 146.48C209.31 143.37 212.44 146.78 217.33 153.07C219.91 156.38 219.14 161.1 216.24 164.35C215.45 165.23 214.42 166 215.46 167.27C216.57 168.64 215.87 171.29 218.97 171.3C224.33 171.32 228.07 175.4 228.17 180.78C228.2 182.36 228.22 183.94 228.16 185.52C227.99 190.48 224.28 194.34 219.35 194.67C218.17 194.75 216.89 194.6 216.72 196.22C216.52 198.05 214.11 199.47 216.33 201.79C219.86 205.48 219.55 210.98 216.05 214.65C215.02 215.74 213.96 216.8 212.88 217.83C209.15 221.41 204 221.6 199.93 218.47C199.24 217.94 197.78 217.48 197.28 217.83C195.72 218.93 192.92 218.14 192.59 221.41C192.38 223.54 191.23 226.01 189.69 227.48C185.61 231.38 180.37 230.72 175.56 229.41C171.13 228.2 169.36 224.45 169.2 219.83C167.57 219.15 165.93 218.35 164.21 217.81C163.67 217.64 162.8 217.98 162.27 218.35C157.43 221.79 152.76 221.5 148.65 217.19C146.89 215.35 145.55 213.13 143.83 211.24C143.29 210.65 142.18 210.33 141.33 210.32C132.85 210.25 124.36 210.28 115.88 210.28C101.24 210.28 86.6 210.29 71.96 210.28C62.15 210.27 56.35 204.44 56.33 194.58C56.31 183.27 56.32 171.95 56.33 160.64C56.33 160.06 56.33 159.47 56.36 158.89C56.48 156.82 57.59 155.66 59.65 155.54C61.6 155.43 63.04 156.81 63.07 158.99C63.14 165.23 63.11 171.47 63.11 177.71C63.11 178.6 63.11 179.5 63.11 180.53C86.8 180.53 110.21 180.53 133.73 180.53C134.61 174.94 137.6 171.52 143.52 171.14C144 171.11 144.59 170.51 144.87 170.03C145.4 169.1 145.91 168.08 146.09 167.05C146.24 166.16 146.24 164.94 145.74 164.3C142.3 159.84 142.51 154.84 146.49 150.8C147.42 149.85 148.35 148.89 149.32 147.98C153.07 144.44 158.35 144.21 162.21 147.58C163.38 148.6 164.35 149.04 165.67 148.13C167.06 147.18 169.43 147.66 169.4 144.69C169.36 140.48 172.33 136.93 176.49 136.22C179.38 135.72 182.48 135.69 185.37 136.15C189.81 136.86 192.5 140.43 192.76 144.94C192.8 145.66 192.98 146.38 193.1 147.09C193.33 147.07 193.56 147.04 193.79 147.02C193.79 108.11 193.79 69.2 193.79 30.15C150.35 30.15 106.96 30.15 63.08 30.15C63.08 32.76 63.34 35.42 62.97 37.99C62.8 39.2 61.64 40.72 60.54 41.21C59.7 41.58 58.08 40.76 57.11 40.06C56.54 39.65 56.38 38.42 56.37 37.55C56.33 29.65 56.21 21.74 56.41 13.84C56.6 5.95001 62.88 0.0200049 70.85 0.0200049C109.28 4.88292e-06 147.7 4.88292e-06 186.13 0.0200049C194.64 0.0200049 200.74 6.28 200.74 14.99C200.76 57.75 200.75 100.51 200.75 143.27C200.75 144.25 200.75 145.24 200.75 146.48ZM212.53 157.68C211.15 156.18 209.98 154.83 208.73 153.56C206.67 151.47 205.58 151.48 203.52 153.51C200.2 156.78 198.73 157.01 194.44 154.99C193.69 154.64 192.95 154.21 192.15 154.01C187.72 152.91 185.47 150.33 185.93 145.57C186.11 143.69 184.97 142.64 183.04 142.6C182.21 142.58 181.38 142.58 180.55 142.58C176.66 142.59 176.26 142.98 176.17 146.85C176.09 150.37 174.9 152.02 171.64 153.18C170.39 153.63 169.08 153.98 167.94 154.63C164.25 156.74 161.04 156.56 158.2 153.11C156.91 151.55 155.33 151.62 153.87 153.05C153.39 153.51 152.93 154 152.46 154.46C149.35 157.55 149.34 157.94 152.25 161.11C154.19 163.23 154.52 165.37 153.3 167.99C152.63 169.42 151.74 170.79 151.34 172.29C150.26 176.32 147.92 178.37 143.6 178.07C141.68 177.94 140.73 179.14 140.72 181.05C140.72 181.88 140.71 182.71 140.71 183.55C140.72 187.29 141.09 187.68 144.8 187.87C148.03 188.04 149.57 189.23 150.66 192.33C151.18 193.81 151.72 195.31 152.39 196.73C154.54 201.25 154.48 202.1 151.18 205.82C149.84 207.34 149.77 208.75 151.2 210.2C151.78 210.79 152.38 211.38 152.96 211.96C155.55 214.55 156.27 214.57 158.91 212.12C161.27 209.93 163.19 209.66 166.17 211.08C167.52 211.72 168.84 212.55 170.26 212.88C174.35 213.84 176.45 216.14 176.19 220.47C176.08 222.28 177.17 223.21 178.95 223.29C179.86 223.33 180.78 223.32 181.69 223.31C185.35 223.29 185.8 222.86 185.97 219.16C186.12 215.85 187.24 214.38 190.29 213.19C192.22 212.44 194.1 211.57 195.99 210.7C198.6 209.5 200.74 209.82 202.87 211.77C206.06 214.7 206.41 214.69 209.51 211.56C210.04 211.03 210.59 210.52 211.1 209.97C212.33 208.65 212.46 207.13 211.08 206.02C207.27 202.97 207.31 199.51 209.59 195.64C209.96 195 210.24 194.28 210.41 193.56C211.39 189.48 213.83 187.49 218.14 187.79C219.01 187.85 220.64 187.28 220.71 186.82C221.07 184.42 221.37 181.91 220.95 179.57C220.82 178.84 218.4 178.19 216.98 178.08C213.4 177.81 211.97 176.91 210.66 173.51C210.12 172.12 209.56 170.73 208.93 169.38C207.02 165.29 207.28 163.84 210.47 160.5C211.18 159.78 211.7 158.85 212.53 157.68ZM194.07 23.35C194.07 20.73 194.07 18.5 194.07 16.27C194.06 9.47001 191.36 6.79 184.52 6.79C154.19 6.79 123.85 6.79 93.52 6.79C86.21 6.79 78.89 6.76 71.58 6.8C66.05 6.83 63.19 9.75 63.12 15.32C63.1 16.98 63.3 18.67 63.07 20.3C62.71 22.97 63.86 23.41 66.28 23.4C107.83 23.33 149.39 23.35 190.94 23.35C191.84 23.35 192.74 23.35 194.07 23.35ZM63.28 187.42C63.28 190.92 63.02 194.08 63.35 197.18C63.76 201.05 66.93 203.61 71 203.61C94.93 203.65 118.85 203.64 142.78 203.59C143.54 203.59 144.39 203.04 145.05 202.55C147.58 200.67 145.54 198.75 145.04 196.81C144.66 195.34 143.95 194.74 142.32 194.59C139.07 194.3 136.37 192.64 135.1 189.59C134.28 187.62 133.12 187.38 131.32 187.38C109.64 187.42 87.95 187.41 66.27 187.41C65.3 187.42 64.33 187.42 63.28 187.42Z" fill="#F2668F"/>
<path d="M65.8399 148.75C48.9599 148.75 32.0799 148.76 15.2099 148.75C5.95994 148.75 0.0199414 142.87 0.00994141 133.69C-5.85937e-05 110.24 -5.85937e-05 86.79 0.00994141 63.34C0.0199414 54.26 5.86994 48.23 14.9099 48.22C48.9199 48.18 82.9199 48.18 116.93 48.22C125.9 48.23 131.92 54.32 131.93 63.3C131.96 86.75 131.96 110.2 131.93 133.65C131.92 142.83 125.92 148.75 116.73 148.76C99.7699 148.76 82.7999 148.75 65.8399 148.75ZM65.7799 142C82.4899 142 99.1999 142.01 115.92 142C122.41 142 125.23 139.2 125.23 132.76C125.24 109.89 125.24 87.02 125.23 64.15C125.23 57.87 122.35 54.99 116.09 54.99C82.6699 54.99 49.2399 54.99 15.8199 54.99C9.51994 54.99 6.64994 57.84 6.64994 64.11C6.64994 86.9 6.64994 109.68 6.64994 132.47C6.64994 139.28 9.35994 142 16.1499 142C32.6899 142.01 49.2399 142 65.7799 142Z" fill="#F2668F"/>
<path opacity="0.2" d="M212.53 157.68C211.7 158.84 211.18 159.77 210.47 160.52C207.28 163.86 207.02 165.31 208.93 169.4C209.56 170.75 210.13 172.14 210.66 173.53C211.97 176.93 213.4 177.83 216.98 178.1C218.4 178.21 220.82 178.85 220.95 179.59C221.37 181.93 221.07 184.45 220.71 186.84C220.64 187.3 219.01 187.87 218.14 187.81C213.83 187.51 211.39 189.5 210.41 193.58C210.24 194.3 209.96 195.03 209.59 195.66C207.31 199.53 207.28 202.99 211.08 206.04C212.46 207.15 212.33 208.67 211.1 209.99C210.59 210.54 210.04 211.05 209.51 211.58C206.41 214.7 206.06 214.72 202.87 211.79C200.74 209.84 198.6 209.52 195.99 210.72C194.11 211.58 192.22 212.46 190.29 213.21C187.24 214.4 186.12 215.87 185.97 219.18C185.8 222.88 185.35 223.31 181.69 223.33C180.78 223.33 179.86 223.35 178.95 223.31C177.16 223.23 176.08 222.3 176.19 220.49C176.45 216.16 174.35 213.86 170.26 212.9C168.83 212.57 167.52 211.74 166.17 211.1C163.19 209.68 161.27 209.95 158.91 212.14C156.27 214.59 155.55 214.57 152.96 211.98C152.37 211.39 151.78 210.81 151.2 210.22C149.77 208.77 149.84 207.35 151.18 205.84C154.47 202.12 154.53 201.27 152.39 196.75C151.71 195.33 151.18 193.84 150.66 192.35C149.57 189.26 148.03 188.07 144.8 187.89C141.1 187.69 140.73 187.3 140.71 183.57C140.71 182.74 140.71 181.91 140.72 181.07C140.73 179.16 141.67 177.96 143.6 178.09C147.92 178.39 150.26 176.34 151.34 172.31C151.74 170.81 152.63 169.44 153.3 168.01C154.52 165.39 154.19 163.24 152.25 161.13C149.34 157.96 149.35 157.57 152.46 154.48C152.93 154.01 153.39 153.53 153.87 153.07C155.33 151.64 156.91 151.57 158.2 153.13C161.05 156.58 164.25 156.76 167.94 154.65C169.08 154 170.39 153.64 171.64 153.2C174.9 152.03 176.09 150.38 176.17 146.87C176.26 143.01 176.66 142.62 180.55 142.6C181.38 142.6 182.21 142.6 183.04 142.62C184.97 142.66 186.12 143.71 185.93 145.59C185.47 150.35 187.72 152.93 192.15 154.03C192.94 154.23 193.69 154.65 194.44 155.01C198.73 157.03 200.19 156.8 203.52 153.53C205.58 151.5 206.67 151.49 208.73 153.58C209.98 154.83 211.15 156.19 212.53 157.68ZM198.65 182.96C198.65 173.38 190.56 165.31 180.99 165.35C171.37 165.39 163.49 173.37 163.46 183.09C163.43 192.51 171.5 200.54 180.99 200.55C190.63 200.57 198.65 192.57 198.65 182.96Z" fill="#C264E3"/>
<path opacity="0.2" d="M194.07 23.35C192.74 23.35 191.84 23.35 190.94 23.35C149.39 23.35 107.83 23.33 66.28 23.4C63.86 23.4 62.71 22.96 63.07 20.3C63.29 18.67 63.09 16.98 63.12 15.32C63.19 9.74997 66.05 6.82997 71.58 6.79997C78.89 6.75997 86.21 6.78997 93.52 6.78997C123.85 6.78997 154.19 6.78997 184.52 6.78997C191.36 6.78997 194.06 9.47997 194.07 16.27C194.07 18.5 194.07 20.73 194.07 23.35Z" fill="#C264E3"/>
<path opacity="0.2" d="M63.28 187.42C64.34 187.42 65.31 187.42 66.27 187.42C87.95 187.42 109.64 187.44 131.32 187.39C133.12 187.39 134.28 187.62 135.1 189.6C136.37 192.64 139.07 194.31 142.32 194.6C143.96 194.74 144.66 195.35 145.04 196.82C145.54 198.75 147.58 200.67 145.05 202.56C144.39 203.05 143.54 203.6 142.78 203.6C118.85 203.65 94.93 203.66 71 203.62C66.93 203.61 63.76 201.06 63.35 197.19C63.01 194.08 63.28 190.92 63.28 187.42Z" fill="#C264E3"/>
<path d="M198.65 182.96C198.65 192.57 190.63 200.57 180.99 200.55C171.5 200.54 163.43 192.5 163.46 183.09C163.49 173.36 171.37 165.39 180.99 165.35C190.56 165.31 198.65 173.38 198.65 182.96ZM191.26 180.7C190.6 175.73 186.05 172.12 180.79 172.22C175.72 172.32 171.33 176.02 170.9 180.7C176.95 180.7 182.99 180.7 189.03 180.7C189.77 180.7 190.5 180.7 191.26 180.7ZM171.62 187.56C173.51 191.83 177.77 194.15 182.35 193.65C186.12 193.24 189.57 190.61 190.25 187.56C184.11 187.56 178 187.56 171.62 187.56Z" fill="#F2668F"/>
<path d="M80.2 74.04C79.88 74.84 79.68 75.47 79.39 76.05C72.12 90.59 64.83 105.13 57.55 119.67C57.36 120.04 57.16 120.4 56.98 120.77C56.2 122.33 55.02 123.14 53.36 122.22C51.83 121.37 51.89 120.04 52.64 118.57C55.3 113.31 57.91 108.03 60.54 102.76C65.37 93.12 70.19 83.47 75.05 73.84C76.1 71.75 77.53 71.23 78.95 72.34C79.49 72.76 79.8 73.47 80.2 74.04Z" fill="#F2668F"/>
<path d="M30.89 102.92C35.14 105.71 39 108.29 42.92 110.79C44.55 111.84 45.78 112.95 44.51 115.01C43.48 116.67 41.89 116.82 39.76 115.45C34.87 112.29 30 109.11 25.14 105.9C22.4 104.09 22.31 101.79 24.99 99.99C30.1 96.56 35.26 93.22 40.41 89.84C42.08 88.75 43.45 89.23 44.48 90.74C45.52 92.28 45.05 93.56 43.55 94.55C39.46 97.24 35.38 99.95 30.89 102.92Z" fill="#F2668F"/>
<path d="M101.33 102.92C97.07 100.12 93.19 97.59 89.33 95.03C87.07 93.53 86.61 92.21 87.8 90.61C89.25 88.66 90.78 89.17 92.53 90.35C97.28 93.56 102.12 96.62 106.89 99.8C109.88 101.79 109.85 104.03 106.86 106C102 109.2 97.11 112.33 92.27 115.56C90.54 116.72 88.96 116.85 87.74 115.05C86.43 113.12 87.52 111.89 89.22 110.81C93.14 108.33 97 105.74 101.33 102.92Z" fill="#F2668F"/>
<circle cx="181" cy="183" r="11" fill="white"/>
</g>
<defs>
<clipPath id="clip0_9_1120">
<rect width="228.2" height="230.44" fill="white"/>
</clipPath>
</defs>
</svg>
